<?xml version="1.0" encoding="UTF-8" standalone="no"?>
<svg
   xmlns:dc="http://purl.org/dc/elements/1.1/"
   xmlns:cc="http://creativecommons.org/ns#"
   xmlns:rdf="http://www.w3.org/1999/02/22-rdf-syntax-ns#"
   xmlns:svg="http://www.w3.org/2000/svg"
   xmlns="http://www.w3.org/2000/svg"
   xmlns:sodipodi="http://sodipodi.sourceforge.net/DTD/sodipodi-0.dtd"
   xmlns:inkscape="http://www.inkscape.org/namespaces/inkscape"
   width="443.93018"
   height="385.1188"
   viewBox="0 0 117.45652 101.89602"
   version="1.1"
   id="svg8"
   inkscape:version="1.0.1 (3bc2e813f5, 2020-09-07)"
   sodipodi:docname="newFlag.svg">
  <defs
     id="defs2" />
  <sodipodi:namedview
     id="base"
     pagecolor="#ffffff"
     bordercolor="#666666"
     borderopacity="1.0"
     inkscape:pageopacity="0.0"
     inkscape:pageshadow="2"
     inkscape:zoom="0.98994949"
     inkscape:cx="235.34213"
     inkscape:cy="253.39064"
     inkscape:document-units="px"
     inkscape:current-layer="layer1"
     inkscape:document-rotation="0"
     showgrid="false"
     units="px"
     inkscape:showpageshadow="false"
     inkscape:pagecheckerboard="true"
     fit-margin-top="0"
     fit-margin-left="0"
     fit-margin-right="0"
     fit-margin-bottom="0"
     inkscape:window-width="1920"
     inkscape:window-height="1017"
     inkscape:window-x="1912"
     inkscape:window-y="-8"
     inkscape:window-maximized="1" />
  <metadata
     id="metadata5">
    <rdf:RDF>
      <cc:Work
         rdf:about="">
        <dc:format>image/svg+xml</dc:format>
        <dc:type
           rdf:resource="http://purl.org/dc/dcmitype/StillImage" />
        <dc:title></dc:title>
      </cc:Work>
    </rdf:RDF>
  </metadata>
  <g
     inkscape:label="Layer 1"
     inkscape:groupmode="layer"
     id="layer1"
     transform="translate(-38.490207,-46.090407)">
    <g
       id="g847"
       transform="translate(-3.2953424,-7.6117231)"
       style="fill:#80ffe6">
      <path
         style="fill:#80ffe6;fill-opacity:1;stroke-width:0.264583"
         d="m 89.163968,114.83862 c 2.65e-4,-0.10915 1.578195,-0.17698 3.506346,-0.15075 3.525438,0.048 3.102351,0.14679 -1.191242,0.27827 -1.273648,0.039 -2.315445,-0.0184 -2.315104,-0.12752 z m 17.529262,-0.13006 c 0.98227,-0.0509 2.58961,-0.0509 3.57188,0 0.98226,0.0509 0.17859,0.0926 -1.78594,0.0926 -1.96453,0 -2.76821,-0.0417 -1.78594,-0.0926 z M 82.549604,86.528199 c 2.2e-4,-0.109141 2.709069,-0.174477 6.019668,-0.145193 6.087885,0.05385 5.388356,0.150945 -1.984772,0.275476 -2.219409,0.03748 -4.035112,-0.02114 -4.034896,-0.130283 z m 24.042536,-0.0052 c 0.11224,-0.111995 2.87469,-0.171336 6.13878,-0.131871 l 5.93471,0.07176 -6.13878,0.131868 c -3.37633,0.07253 -6.04695,0.04024 -5.93471,-0.07175 z M 82.549604,84.27924 c -2.16e-4,-0.10914 1.815487,-0.167766 4.034896,-0.130283 7.373128,0.124531 8.072657,0.221623 1.984772,0.275476 -3.310599,0.02928 -6.019448,-0.03605 -6.019668,-0.145193 z m 27.186336,7.94e-4 c 1.63711,-0.04642 4.31601,-0.04642 5.95312,0 1.63711,0.04642 0.29766,0.0844 -2.97656,0.0844 -3.27422,0 -4.61367,-0.03798 -2.97656,-0.0844 z"
         id="path853" />
      <path
         style="fill:#80ffe6;fill-opacity:1;stroke-width:0.264583"
         d="m 50.488595,155.45225 c 4.994717,-0.0403 13.090967,-0.0402 17.991666,5e-5 4.9007,0.0403 0.814115,0.0733 -9.081301,0.0732 -9.895417,-3e-5 -13.905082,-0.033 -8.910365,-0.0733 z m 73.071745,-9e-5 c -7e-5,-0.17998 13.03211,-0.17758 29.50112,0.005 3.4925,0.0388 -1.71648,0.0981 -11.57552,0.13178 -9.85904,0.0337 -17.92556,-0.0281 -17.9256,-0.13722 z M 62.522742,145.13413 c 1.718079,-0.0462 4.456517,-0.046 6.085416,2.7e-4 1.6289,0.0463 0.223197,0.0841 -3.123782,0.0839 -3.346979,-1.9e-4 -4.679714,-0.0381 -2.961634,-0.0843 z m 68.975178,0.0142 c 4.86281,-0.18878 10.05492,-0.19648 10.05456,-0.0149 -2.2e-4,0.10914 -2.70907,0.17448 -6.01967,0.1452 -3.3106,-0.0293 -5.1263,-0.0879 -4.03489,-0.13029 z m -58.340627,-11.45814 -6.085417,-0.14731 6.151563,-0.0586 c 3.963744,-0.0378 6.151562,0.0355 6.151562,0.20595 0,0.14552 -0.02976,0.23819 -0.06614,0.20594 -0.03638,-0.0323 -2.804584,-0.12492 -6.151563,-0.20594 z m 51.542527,-0.19771 c 1.71808,-0.0462 4.45652,-0.046 6.08542,2.6e-4 1.6289,0.0463 0.2232,0.0841 -3.12378,0.0839 -3.34698,-1.8e-4 -4.67971,-0.0381 -2.96164,-0.0843 z m -63.316565,-10.1872 c 4.3e-5,-0.10914 8.066564,-0.17089 17.925601,-0.13722 9.859036,0.0337 15.06802,0.093 11.57552,0.13178 -16.46901,0.18302 -29.501192,0.18542 -29.501121,0.005 z m 51.282425,-0.1322 c 4.99471,-0.0403 13.09096,-0.0403 17.99166,5e-5 4.9007,0.0403 0.81412,0.0733 -9.0813,0.0732 -9.89541,-2e-5 -13.90508,-0.033 -8.91036,-0.0733 z"
         id="path851" />
      <path
         style="fill:#80ffe6;fill-opacity:1;stroke-width:0.264583"
         d="m 42.099964,154.7907 c 0.284859,-0.53935 17.182423,-30.16524 17.268061,-30.27546 0.02,-0.0258 1.370623,2.25374 3.001369,5.06554 l 2.964998,5.11235 -2.901291,5.12092 c -1.595708,2.81651 -2.901416,5.21022 -2.901569,5.31936 -1.54e-4,0.10914 2.708391,0.20193 6.01899,0.20621 l 6.019271,0.008 1.984375,3.48279 c 1.091406,1.91553 2.378223,4.17422 2.859593,5.01931 l 0.875218,1.53653 H 59.537265 41.785549 l 0.314415,-0.59531 z m 81.725036,0.45285 c 0,-0.0784 1.26711,-2.34055 2.8158,-5.02709 l 2.81581,-4.88462 h 6.06979 c 3.33838,0 6.0301,-0.0988 5.98159,-0.21952 -0.0485,-0.12073 -1.37826,-2.50134 -2.95499,-5.29023 -1.57674,-2.7889 -2.8269,-5.17265 -2.77813,-5.29723 0.2417,-0.61743 5.66429,-9.82749 5.78693,-9.82889 0.0781,-8e-4 4.08812,6.904 8.91114,15.34421 l 8.76913,15.34583 h -17.70853 c -9.7397,0 -17.70854,-0.0641 -17.70854,-0.14246 z m -28.145784,-8.03487 c -2.417566,-4.20649 -4.46355,-7.8253 -4.546631,-8.04181 -0.228772,-0.59617 5.562981,-10.60306 5.890778,-10.17798 0.142367,0.18461 0.880788,1.43468 1.640933,2.77791 0.760145,1.34324 1.484444,2.50552 1.609564,2.58284 0.12511,0.0773 0.97522,-1.17052 1.88912,-2.77298 0.91391,-1.60246 1.72666,-2.91205 1.80611,-2.91021 0.21911,0.005 5.6566,9.54052 5.6566,9.91968 0,0.41714 -9.13316,16.27071 -9.37347,16.27071 -0.0976,0 -2.155434,-3.44167 -4.573004,-7.64816 z m 17.097944,-8.31231 -8.79344,-15.39265 8.86231,-0.0697 c 4.87427,-0.0383 12.84463,-0.0383 17.71192,0 l 8.84961,0.0697 -2.83034,4.95172 -2.83034,4.95173 -6.01927,0.009 c -3.35864,0.005 -6.01928,0.11389 -6.01928,0.24601 0,0.13024 1.30825,2.52147 2.90721,5.31386 l 2.90721,5.07706 -2.94079,5.07104 c -1.61743,2.78907 -2.95666,5.09211 -2.97607,5.11785 -0.0194,0.0258 -3.99233,-6.87987 -8.82873,-15.34583 z m -36.312575,10.3631 c -1.527969,-2.64021 -2.819792,-4.9076 -2.870719,-5.03865 -0.05092,-0.13105 1.228998,-2.5537 2.844271,-5.38365 1.615276,-2.82996 2.936864,-5.20527 2.936864,-5.27848 0,-0.0732 -2.721483,-0.1331 -6.04774,-0.1331 h -6.047737 l -2.815804,-4.88461 c -1.548691,-2.68654 -2.815802,-4.94873 -2.815802,-5.02709 0,-0.0784 7.968843,-0.14246 17.708536,-0.14246 H 97.06499 l -8.76913,15.34583 c -4.823024,8.44021 -8.833038,15.3451 -8.911143,15.34421 -0.0781,-8.9e-4 -1.392164,-2.16179 -2.920132,-4.802 z m 4.131598,-28.8646 c -0.703548,-1.10651 -9.158682,-15.84195 -9.158682,-15.96157 0,-0.0653 4.191492,-0.0874 9.314429,-0.0491 l 9.314426,0.0695 2.959362,5.02708 2.959362,5.02709 -3.410249,0.0738 c -1.875634,0.0406 -3.410246,0.14797 -3.410246,0.23859 0,0.14677 1.242451,2.3605 2.905974,5.17769 l 0.585877,0.99219 h -5.840867 c -5.768655,0 -5.845548,-0.007 -6.219386,-0.59531 z m 28.173187,0.005 c 0.17285,-0.33023 0.95218,-1.68994 1.73183,-3.02158 0.77965,-1.33165 1.41755,-2.48905 1.41755,-2.57201 0,-0.083 -1.54227,-0.18406 -3.42727,-0.22466 l -3.42727,-0.0738 2.96425,-5.08632 2.96425,-5.08632 9.34933,-0.007 9.34934,-0.007 -0.92506,1.65364 c -0.50878,0.90951 -2.65001,4.63021 -4.75828,8.26823 l -3.83323,6.61458 -5.85986,0.0712 -5.85985,0.0713 0.31427,-0.60041 z m -8.41758,-3.43829 C 100.08717,116.6254 83.027611,87.216301 82.856974,86.802238 c -0.04945,-0.119988 2.565532,-0.186086 5.811062,-0.146886 l 5.900965,0.07127 2.920188,4.956064 c 1.606102,2.725835 2.991951,4.958257 3.079671,4.960937 0.0877,0.0027 1.49801,-2.257313 3.134,-5.022209 l 2.97452,-5.027084 h 5.91911 5.91911 l -2.41836,4.167188 c -7.47613,12.882442 -15.34787,26.401702 -15.40937,26.464732 -0.0389,0.0399 -0.19018,-0.0792 -0.33608,-0.26459 z M 82.814585,84.122792 c 0,-0.151042 17.488755,-30.188826 17.710395,-30.418473 0.1136,-0.117695 2.94901,4.525742 6.30093,10.31875 3.35192,5.793004 7.35232,12.705625 8.88979,15.36138 l 2.79538,4.828646 h -5.88477 -5.88477 L 103.76062,79.1786 c -1.63951,-2.76897 -3.07891,-4.973928 -3.19869,-4.899906 -0.11977,0.07402 -1.512779,2.337869 -3.095575,5.030769 l -2.877812,4.896181 -5.886979,0.0037 c -3.237839,0.002 -5.886979,-0.03692 -5.886979,-0.08658 z"
         id="path849" />
    </g>
  </g>
</svg>
